<svg width="87" height="12" viewBox="0 0 87 12" fill="none" xmlns="http://www.w3.org/2000/svg">
<path d="M8.37722 1.99644H7.06584V8.69039L3.28826 1.99644H0.978648V11H2.29004V4.30605L6.06762 11H8.37722V1.99644ZM11.483 3.30783C11.8483 3.30783 12.155 3.19039 12.4029 2.95552C12.6508 2.70759 12.7748 2.40095 12.7748 2.03559C12.7748 1.65718 12.6508 1.34401 12.4029 1.09609C12.155 0.835113 11.8483 0.704626 11.483 0.704626C11.1176 0.704626 10.811 0.835113 10.563 1.09609C10.3151 1.34401 10.1912 1.65065 10.1912 2.01601C10.1912 2.36833 10.3151 2.67497 10.563 2.93594C10.824 3.18387 11.1307 3.30783 11.483 3.30783ZM12.5791 11V3.95374H10.3869V11H12.5791ZM17.4574 4.85409C18.1098 4.85409 18.4426 5.43476 18.4556 6.59609L20.2563 6.40036C20.2041 5.51305 19.9562 4.85409 19.5126 4.42349C19.0819 3.99288 18.3577 3.77758 17.34 3.77758C16.0612 3.77758 15.2 4.14947 14.7563 4.89324C14.391 5.51957 14.2083 6.38078 14.2083 7.47687C14.2083 9.29063 14.7172 10.4259 15.735 10.8826C16.1656 11.0783 16.7006 11.1762 17.34 11.1762C18.3708 11.1762 19.1015 10.9478 19.5321 10.4911C19.9758 10.0344 20.2237 9.34282 20.2759 8.41637L18.4556 8.33808C18.4426 9.51246 18.1098 10.0996 17.4574 10.0996C17.0659 10.0996 16.7854 9.91044 16.6158 9.53203C16.4592 9.15362 16.3809 8.46856 16.3809 7.47687C16.3809 6.47212 16.4592 5.78707 16.6158 5.42171C16.7723 5.0433 17.0529 4.85409 17.4574 4.85409ZM24.0713 4.30605V1.50712L21.8791 1.78114V11H24.0713V5.38256C24.4367 5.13464 24.7955 5.01068 25.1478 5.01068C25.5132 5.01068 25.7546 5.11507 25.872 5.32384C25.9894 5.51957 26.0482 5.85231 26.0482 6.32206V11H28.2208V6.04804C28.2208 5.38256 28.0316 4.84104 27.6531 4.42349C27.2878 3.99288 26.7593 3.77758 26.0677 3.77758C25.3892 3.77758 24.7237 3.95374 24.0713 4.30605ZM36.3729 7.47687C36.3729 5.01068 35.2572 3.77758 33.0259 3.77758C30.8077 3.77758 29.6985 5.01068 29.6985 7.47687C29.6985 9.94306 30.8077 11.1762 33.0259 11.1762C35.2572 11.1762 36.3729 9.94306 36.3729 7.47687ZM31.8711 7.47687C31.8711 6.56346 31.9494 5.89798 32.106 5.48043C32.2626 5.06287 32.5692 4.85409 33.0259 4.85409C33.4957 4.85409 33.8023 5.06287 33.9458 5.48043C34.1024 5.88493 34.1807 6.55042 34.1807 7.47687C34.1807 8.40332 34.1024 9.07533 33.9458 9.49288C33.8023 9.89739 33.4957 10.0996 33.0259 10.0996C32.5692 10.0996 32.2626 9.89087 32.106 9.47331C31.9494 9.05575 31.8711 8.39027 31.8711 7.47687ZM40.1631 11V1.50712L37.9709 1.78114V11H40.1631ZM46.0611 10.1779L46.6092 11H48.0576V6.2242C48.0576 4.59312 47.0593 3.77758 45.0629 3.77758C44.0582 3.77758 43.3405 3.97983 42.9099 4.38434C42.4793 4.7758 42.2248 5.38909 42.1465 6.2242L43.9472 6.4395C43.9994 5.38256 44.3518 4.85409 45.0042 4.85409C45.5914 4.85409 45.885 5.26512 45.885 6.08719V6.79181L44.6714 7.02669C43.6406 7.20937 42.9099 7.46382 42.4793 7.79004C42.0487 8.1032 41.8334 8.56643 41.8334 9.17972C41.8334 9.793 42.016 10.2823 42.3814 10.6477C42.7598 11 43.2557 11.1762 43.869 11.1762C44.7824 11.1762 45.5131 10.8434 46.0611 10.1779ZM43.7711 9.121C43.7711 8.45552 44.1821 8.03144 45.0042 7.84875L45.885 7.6726V9.41459C45.4935 9.83215 45.1216 10.0409 44.7693 10.0409C44.1038 10.0409 43.7711 9.73428 43.7711 9.121ZM52.7405 6.49822C52.2838 6.36773 51.938 6.23072 51.7031 6.08719C51.4682 5.9306 51.3508 5.72835 51.3508 5.48043C51.3508 5.06287 51.677 4.85409 52.3294 4.85409C53.0471 4.85409 53.4451 5.32384 53.5234 6.26335L55.3437 6.02847C55.2262 5.2847 54.9326 4.72361 54.4629 4.3452C53.9931 3.96679 53.3146 3.77758 52.4273 3.77758C51.54 3.77758 50.8288 3.96679 50.2939 4.3452C49.7719 4.71056 49.5109 5.22598 49.5109 5.89146C49.5109 6.54389 49.6675 7.04626 49.9807 7.39858C50.3069 7.73784 50.7962 7.99881 51.4487 8.18149L52.075 8.37722C53.0667 8.65125 53.5625 9.01008 53.5625 9.45374C53.5625 9.88434 53.2167 10.0996 52.5252 10.0996C52.1468 10.0996 51.8401 9.96916 51.6052 9.70819C51.3704 9.44721 51.2334 9.08837 51.1942 8.63167L49.3935 8.88612C49.5109 9.64294 49.8045 10.2171 50.2743 10.6085C50.7571 10.987 51.4617 11.1762 52.3882 11.1762C53.3146 11.1762 54.0453 10.9804 54.5803 10.589C55.1284 10.1975 55.4024 9.67556 55.4024 9.02313C55.4024 8.35765 55.2262 7.85528 54.8739 7.51601C54.5216 7.17675 54.0062 6.90925 53.3277 6.71352L52.7405 6.49822ZM65.1086 9.94306H62.2901V1.99644H60.0783V11H65.1086V9.94306ZM72.2733 7.47687C72.2733 5.01068 71.1576 3.77758 68.9263 3.77758C66.708 3.77758 65.5989 5.01068 65.5989 7.47687C65.5989 9.94306 66.708 11.1762 68.9263 11.1762C71.1576 11.1762 72.2733 9.94306 72.2733 7.47687ZM67.7715 7.47687C67.7715 6.56346 67.8498 5.89798 68.0064 5.48043C68.163 5.06287 68.4696 4.85409 68.9263 4.85409C69.3961 4.85409 69.7027 5.06287 69.8462 5.48043C70.0028 5.88493 70.0811 6.55042 70.0811 7.47687C70.0811 8.40332 70.0028 9.07533 69.8462 9.49288C69.7027 9.89739 69.3961 10.0996 68.9263 10.0996C68.4696 10.0996 68.163 9.89087 68.0064 9.47331C67.8498 9.05575 67.7715 8.39027 67.7715 7.47687ZM79.8802 3.95374H78.6471L76.8464 9.92349L75.0457 3.95374H72.8731L75.1436 11H77.5902L79.8802 3.95374ZM86.7862 7.77046V7.53559C86.7862 5.03025 85.7424 3.77758 83.6546 3.77758C81.5146 3.77758 80.4446 5.01068 80.4446 7.47687C80.4446 8.71649 80.6925 9.64294 81.1884 10.2562C81.6973 10.8695 82.4998 11.1762 83.5959 11.1762C84.705 11.1762 85.4814 10.9804 85.925 10.589C86.3687 10.1975 86.6231 9.66251 86.6884 8.98399L84.8877 8.94484C84.8877 9.71471 84.5354 10.0996 83.8307 10.0996C83.4132 10.0996 83.1065 9.93654 82.9108 9.61032C82.7151 9.27106 82.6172 8.65777 82.6172 7.77046H86.7862ZM84.6724 6.69395H82.6564C82.7085 5.97628 82.8064 5.49348 82.9499 5.24555C83.1065 4.98458 83.3479 4.85409 83.6741 4.85409C84.0134 4.85409 84.2548 5.00415 84.3983 5.30427C84.5549 5.59134 84.6463 6.05457 84.6724 6.69395Z" fill="black"/>
</svg>
